<?xml version='1.0' encoding='UTF-8'?>
<svg width="29mm" height="29mm" version="1.1" viewBox="0 0 29 29" xmlns="http://www.w3.org/2000/svg"><path d="M0,0H1V1H0zM1,0H2V1H1zM2,0H3V1H2zM3,0H4V1H3zM4,0H5V1H4zM5,0H6V1H5zM6,0H7V1H6zM15,0H16V1H15zM17,0H18V1H17zM18,0H19V1H18zM19,0H20V1H19zM22,0H23V1H22zM23,0H24V1H23zM24,0H25V1H24zM25,0H26V1H25zM26,0H27V1H26zM27,0H28V1H27zM28,0H29V1H28zM0,1H1V2H0zM6,1H7V2H6zM8,1H9V2H8zM11,1H12V2H11zM12,1H13V2H12zM14,1H15V2H14zM15,1H16V2H15zM16,1H17V2H16zM17,1H18V2H17zM19,1H20V2H19zM22,1H23V2H22zM28,1H29V2H28zM0,2H1V3H0zM2,2H3V3H2zM3,2H4V3H3zM4,2H5V3H4zM6,2H7V3H6zM9,2H10V3H9zM11,2H12V3H11zM12,2H13V3H12zM14,2H15V3H14zM20,2H21V3H20zM22,2H23V3H22zM24,2H25V3H24zM25,2H26V3H25zM26,2H27V3H26zM28,2H29V3H28zM0,3H1V4H0zM2,3H3V4H2zM3,3H4V4H3zM4,3H5V4H4zM6,3H7V4H6zM9,3H10V4H9zM12,3H13V4H12zM14,3H15V4H14zM18,3H19V4H18zM20,3H21V4H20zM22,3H23V4H22zM24,3H25V4H24zM25,3H26V4H25zM26,3H27V4H26zM28,3H29V4H28zM0,4H1V5H0zM2,4H3V5H2zM3,4H4V5H3zM4,4H5V5H4zM6,4H7V5H6zM8,4H9V5H8zM10,4H11V5H10zM12,4H13V5H12zM15,4H16V5H15zM16,4H17V5H16zM19,4H20V5H19zM22,4H23V5H22zM24,4H25V5H24zM25,4H26V5H25zM26,4H27V5H26zM28,4H29V5H28zM0,5H1V6H0zM6,5H7V6H6zM10,5H11V6H10zM15,5H16V6H15zM18,5H19V6H18zM19,5H20V6H19zM20,5H21V6H20zM22,5H23V6H22zM28,5H29V6H28zM0,6H1V7H0zM1,6H2V7H1zM2,6H3V7H2zM3,6H4V7H3zM4,6H5V7H4zM5,6H6V7H5zM6,6H7V7H6zM8,6H9V7H8zM10,6H11V7H10zM12,6H13V7H12zM14,6H15V7H14zM16,6H17V7H16zM18,6H19V7H18zM20,6H21V7H20zM22,6H23V7H22zM23,6H24V7H23zM24,6H25V7H24zM25,6H26V7H25zM26,6H27V7H26zM27,6H28V7H27zM28,6H29V7H28zM11,7H12V8H11zM12,7H13V8H12zM13,7H14V8H13zM15,7H16V8H15zM16,7H17V8H16zM17,7H18V8H17zM19,7H20V8H19zM0,8H1V9H0zM2,8H3V9H2zM4,8H5V9H4zM6,8H7V9H6zM11,8H12V9H11zM12,8H13V9H12zM13,8H14V9H13zM17,8H18V9H17zM18,8H19V9H18zM19,8H20V9H19zM20,8H21V9H20zM24,8H25V9H24zM27,8H28V9H27zM0,9H1V10H0zM5,9H6V10H5zM7,9H8V10H7zM9,9H10V10H9zM10,9H11V10H10zM16,9H17V10H16zM20,9H21V10H20zM22,9H23V10H22zM25,9H26V10H25zM28,9H29V10H28zM2,10H3V11H2zM4,10H5V11H4zM6,10H7V11H6zM7,10H8V11H7zM8,10H9V11H8zM9,10H10V11H9zM12,10H13V11H12zM17,10H18V11H17zM20,10H21V11H20zM21,10H22V11H21zM22,10H23V11H22zM24,10H25V11H24zM26,10H27V11H26zM27,10H28V11H27zM28,10H29V11H28zM1,11H2V12H1zM3,11H4V12H3zM4,11H5V12H4zM8,11H9V12H8zM9,11H10V12H9zM10,11H11V12H10zM13,11H14V12H13zM14,11H15V12H14zM15,11H16V12H15zM17,11H18V12H17zM18,11H19V12H18zM19,11H20V12H19zM23,11H24V12H23zM24,11H25V12H24zM27,11H28V12H27zM1,12H2V13H1zM3,12H4V13H3zM6,12H7V13H6zM7,12H8V13H7zM11,12H12V13H11zM14,12H15V13H14zM16,12H17V13H16zM17,12H18V13H17zM21,12H22V13H21zM22,12H23V13H22zM25,12H26V13H25zM27,12H28V13H27zM28,12H29V13H28zM1,13H2V14H1zM2,13H3V14H2zM9,13H10V14H9zM10,13H11V14H10zM11,13H12V14H11zM16,13H17V14H16zM20,13H21V14H20zM21,13H22V14H21zM22,13H23V14H22zM25,13H26V14H25zM28,13H29V14H28zM3,14H4V15H3zM4,14H5V15H4zM6,14H7V15H6zM7,14H8V15H7zM9,14H10V15H9zM11,14H12V15H11zM13,14H14V15H13zM16,14H17V15H16zM22,14H23V15H22zM24,14H25V15H24zM25,14H26V15H25zM27,14H28V15H27zM28,14H29V15H28zM0,15H1V16H0zM1,15H2V16H1zM5,15H6V16H5zM8,15H9V16H8zM11,15H12V16H11zM12,15H13V16H12zM15,15H16V16H15zM17,15H18V16H17zM20,15H21V16H20zM21,15H22V16H21zM22,15H23V16H22zM25,15H26V16H25zM27,15H28V16H27zM1,16H2V17H1zM6,16H7V17H6zM8,16H9V17H8zM9,16H10V17H9zM11,16H12V17H11zM15,16H16V17H15zM16,16H17V17H16zM17,16H18V17H17zM19,16H20V17H19zM20,16H21V17H20zM22,16H23V17H22zM23,16H24V17H23zM25,16H26V17H25zM27,16H28V17H27zM28,16H29V17H28zM2,17H3V18H2zM4,17H5V18H4zM5,17H6V18H5zM13,17H14V18H13zM16,17H17V18H16zM21,17H22V18H21zM22,17H23V18H22zM25,17H26V18H25zM26,17H27V18H26zM28,17H29V18H28zM0,18H1V19H0zM2,18H3V19H2zM3,18H4V19H3zM4,18H5V19H4zM5,18H6V19H5zM6,18H7V19H6zM9,18H10V19H9zM11,18H12V19H11zM12,18H13V19H12zM14,18H15V19H14zM17,18H18V19H17zM21,18H22V19H21zM23,18H24V19H23zM24,18H25V19H24zM27,18H28V19H27zM28,18H29V19H28zM1,19H2V20H1zM4,19H5V20H4zM7,19H8V20H7zM10,19H11V20H10zM11,19H12V20H11zM12,19H13V20H12zM13,19H14V20H13zM14,19H15V20H14zM17,19H18V20H17zM18,19H19V20H18zM19,19H20V20H19zM20,19H21V20H20zM21,19H22V20H21zM22,19H23V20H22zM23,19H24V20H23zM24,19H25V20H24zM25,19H26V20H25zM27,19H28V20H27zM0,20H1V21H0zM2,20H3V21H2zM3,20H4V21H3zM4,20H5V21H4zM5,20H6V21H5zM6,20H7V21H6zM10,20H11V21H10zM12,20H13V21H12zM14,20H15V21H14zM16,20H17V21H16zM17,20H18V21H17zM19,20H20V21H19zM20,20H21V21H20zM21,20H22V21H21zM22,20H23V21H22zM23,20H24V21H23zM24,20H25V21H24zM8,21H9V22H8zM9,21H10V22H9zM10,21H11V22H10zM11,21H12V22H11zM12,21H13V22H12zM14,21H15V22H14zM16,21H17V22H16zM17,21H18V22H17zM19,21H20V22H19zM20,21H21V22H20zM24,21H25V22H24zM26,21H27V22H26zM27,21H28V22H27zM28,21H29V22H28zM0,22H1V23H0zM1,22H2V23H1zM2,22H3V23H2zM3,22H4V23H3zM4,22H5V23H4zM5,22H6V23H5zM6,22H7V23H6zM11,22H12V23H11zM13,22H14V23H13zM17,22H18V23H17zM18,22H19V23H18zM19,22H20V23H19zM20,22H21V23H20zM22,22H23V23H22zM24,22H25V23H24zM25,22H26V23H25zM27,22H28V23H27zM28,22H29V23H28zM0,23H1V24H0zM6,23H7V24H6zM9,23H10V24H9zM10,23H11V24H10zM11,23H12V24H11zM15,23H16V24H15zM16,23H17V24H16zM17,23H18V24H17zM18,23H19V24H18zM20,23H21V24H20zM24,23H25V24H24zM25,23H26V24H25zM28,23H29V24H28zM0,24H1V25H0zM2,24H3V25H2zM3,24H4V25H3zM4,24H5V25H4zM6,24H7V25H6zM8,24H9V25H8zM11,24H12V25H11zM15,24H16V25H15zM16,24H17V25H16zM17,24H18V25H17zM20,24H21V25H20zM21,24H22V25H21zM22,24H23V25H22zM23,24H24V25H23zM24,24H25V25H24zM27,24H28V25H27zM28,24H29V25H28zM0,25H1V26H0zM2,25H3V26H2zM3,25H4V26H3zM4,25H5V26H4zM6,25H7V26H6zM9,25H10V26H9zM13,25H14V26H13zM17,25H18V26H17zM20,25H21V26H20zM23,25H24V26H23zM24,25H25V26H24zM26,25H27V26H26zM27,25H28V26H27zM28,25H29V26H28zM0,26H1V27H0zM2,26H3V27H2zM3,26H4V27H3zM4,26H5V27H4zM6,26H7V27H6zM8,26H9V27H8zM9,26H10V27H9zM10,26H11V27H10zM11,26H12V27H11zM16,26H17V27H16zM18,26H19V27H18zM19,26H20V27H19zM23,26H24V27H23zM24,26H25V27H24zM25,26H26V27H25zM28,26H29V27H28zM0,27H1V28H0zM6,27H7V28H6zM9,27H10V28H9zM11,27H12V28H11zM12,27H13V28H12zM14,27H15V28H14zM15,27H16V28H15zM16,27H17V28H16zM17,27H18V28H17zM18,27H19V28H18zM19,27H20V28H19zM20,27H21V28H20zM21,27H22V28H21zM24,27H25V28H24zM27,27H28V28H27zM0,28H1V29H0zM1,28H2V29H1zM2,28H3V29H2zM3,28H4V29H3zM4,28H5V29H4zM5,28H6V29H5zM6,28H7V29H6zM8,28H9V29H8zM10,28H11V29H10zM15,28H16V29H15zM16,28H17V29H16zM17,28H18V29H17zM19,28H20V29H19zM20,28H21V29H20zM21,28H22V29H21zM23,28H24V29H23zM24,28H25V29H24zM27,28H28V29H27zM28,28H29V29H28z" id="qr-path" fill="#000000" fill-opacity="1" fill-rule="nonzero" stroke="none" /></svg>